<svg width="36" height="36" viewBox="0 0 36 36" fill="none" xmlns="http://www.w3.org/2000/svg">
<g clip-path="url(#clip0_0_125)">
<path opacity="0.15" d="M1.03394 17.953C1.03394 27.2585 8.64751 34.8721 17.953 34.8721C27.2585 34.8721 34.8721 27.2585 34.8721 17.953C34.8721 8.64751 27.2585 1.03394 17.953 1.03394C8.64751 1.03394 1.03394 8.64751 1.03394 17.953Z" stroke="#1E2D78" stroke-width="1.8799" stroke-miterlimit="10"/>
<path d="M1.03394 17.953C1.03394 27.2585 8.64751 34.8721 17.953 34.8721C27.2585 34.8721 34.8721 27.2585 34.8721 17.953C34.8721 8.64751 27.2585 1.03394 17.953 1.03394C8.64751 1.03394 1.03394 8.64751 1.03394 17.953Z" stroke="#1E2D78" stroke-width="1.8799" stroke-miterlimit="10" stroke-dasharray="142.87 142.87"/>
<path d="M15.4151 23.1228L20.5848 17.953L15.4151 12.8773" stroke="#1E2D78" stroke-width="1.40992" stroke-miterlimit="10"/>
</g>
<defs>
<clipPath id="clip0_0_125">
<rect width="36" height="36" fill="white"/>
</clipPath>
</defs>
</svg>
