<svg width="17" height="17" viewBox="0 0 17 17" fill="none" xmlns="http://www.w3.org/2000/svg">
<path d="M3.97151 0.371321C4.585 1.21083 5.30611 2.28712 6.13485 3.60019C6.33935 3.9446 6.30706 4.36974 6.03799 4.87559C5.95188 5.0478 5.69357 5.52675 5.26306 6.31244C5.34916 6.4416 5.44872 6.57613 5.56173 6.71605C5.67474 6.85597 5.79582 7.00396 5.92498 7.16002C6.05413 7.31608 6.19405 7.47483 6.34473 7.63628C6.49541 7.79772 6.65416 7.96724 6.82099 8.14482C6.98781 8.32241 7.16271 8.50269 7.34568 8.68566C8.29281 9.6328 9.07851 10.3324 9.70275 10.7844C10.4023 10.3754 10.8813 10.1064 11.1396 9.97721C11.4087 9.82653 11.667 9.75119 11.9145 9.75119C12.1083 9.75119 12.2751 9.79424 12.415 9.88034C13.3729 10.4615 14.46 11.1827 15.6762 12.0437C15.8914 12.2159 16.0206 12.4419 16.0636 12.7217C16.0959 13.0123 16.0044 13.3245 15.7892 13.6581C15.7031 13.7873 15.5362 14.0025 15.2887 14.3039C15.0627 14.5837 14.721 14.9389 14.2635 15.3694C13.8061 15.7999 13.4321 16.0152 13.1415 16.0152H13.1092C12.0006 15.9721 10.7683 15.5362 9.41216 14.7075C8.05603 13.8788 6.57075 12.6626 4.95632 11.0589C1.73821 7.83001 0.0861032 5.11238 0 2.90598C0 2.61539 0.215258 2.2333 0.645774 1.75974C1.06553 1.30769 1.41532 0.968661 1.69516 0.74264C1.97499 0.527383 2.20101 0.360558 2.37322 0.242166C2.59924 0.0807219 2.86293 0 3.16429 0C3.50871 0 3.77778 0.123774 3.97151 0.371321ZM2.93827 1.03324C2.51852 1.3346 2.10953 1.68439 1.7113 2.08262C1.32384 2.47009 1.09782 2.7553 1.03324 2.93827C1.11934 4.87559 2.66651 7.34568 5.67474 10.3485C8.68297 13.3514 11.1611 14.9066 13.1092 15.0142C13.2707 14.9497 13.5451 14.7183 13.9326 14.32C14.32 13.9218 14.6698 13.5074 14.982 13.0769C15.0142 13.0339 15.0358 12.9935 15.0465 12.9558C15.0573 12.9182 15.0573 12.8832 15.0465 12.8509C13.8088 11.9899 12.7648 11.2903 11.9145 10.7521C11.8284 10.7521 11.7208 10.7844 11.5916 10.849C11.5486 10.8705 11.3764 10.9674 11.075 11.1396C10.7737 11.3118 10.4777 11.4733 10.1871 11.6239L9.65432 11.9468L9.12156 11.5916C8.44349 11.1288 7.60937 10.3916 6.61918 9.37987C5.65052 8.40044 4.92403 7.56632 4.4397 6.87749L4.05223 6.37702L4.37512 5.81197C4.77335 5.09085 5.03166 4.62267 5.15005 4.40741C5.21462 4.27825 5.24691 4.17062 5.24691 4.08452C4.88098 3.50332 4.5258 2.95173 4.18139 2.42973C3.83697 1.90772 3.50871 1.4207 3.19658 0.968661H3.16429C3.07819 0.968661 3.00285 0.990188 2.93827 1.03324Z" fill="white"/>
</svg>
