<svg width="13" height="17" viewBox="0 0 13 17" fill="none" xmlns="http://www.w3.org/2000/svg">
<path d="M6.26401 0C5.4245 0 4.61998 0.169516 3.85043 0.508547C3.08088 0.847578 2.41627 1.29962 1.8566 1.86467C1.29693 2.42972 0.847578 3.09972 0.508547 3.87464C0.169516 4.64957 0 5.45679 0 6.2963C0 6.76986 0.0645774 7.26496 0.193732 7.78158C0.322887 8.2982 0.473568 8.77714 0.645774 9.21842C0.81798 9.6597 1.06553 10.1494 1.38841 10.6876C1.7113 11.2257 1.99921 11.6804 2.25214 12.0518C2.50506 12.4231 2.84679 12.8751 3.2773 13.4079C3.70782 13.9406 4.04147 14.3469 4.27825 14.6268C4.51504 14.9066 4.84869 15.2941 5.2792 15.7892C5.40836 15.9399 5.50522 16.0475 5.5698 16.1121C5.59133 16.1444 5.629 16.1847 5.68281 16.2331C5.73663 16.2816 5.83349 16.3435 5.97341 16.4188C6.11333 16.4941 6.24786 16.5318 6.37702 16.5318H6.42545C6.72681 16.5318 6.99588 16.3919 7.23267 16.1121C10.6768 12.1513 12.3989 8.87939 12.3989 6.2963C12.3989 4.49889 11.85 3.00823 10.7521 1.82431C9.61127 0.608104 8.11523 0 6.26401 0ZM6.45774 15.4179C6.44698 15.4394 6.42545 15.4609 6.39316 15.4824C6.37164 15.4609 6.35011 15.4394 6.32859 15.4179L6.05413 15.1111C5.64514 14.6375 5.32764 14.2689 5.10161 14.0052C4.87559 13.7415 4.55809 13.3568 4.1491 12.8509C3.74011 12.345 3.41722 11.9172 3.18044 11.5674C2.94365 11.2176 2.6692 10.7925 2.35708 10.292C2.04495 9.79155 1.80548 9.33951 1.63865 8.9359C1.47183 8.53229 1.32922 8.09639 1.21083 7.62821C1.09243 7.16002 1.03324 6.71605 1.03324 6.2963C1.03324 5.35992 1.27002 4.48544 1.74359 3.67284C2.21716 2.86024 2.85486 2.21716 3.6567 1.74359C4.45853 1.27002 5.32764 1.03324 6.26401 1.03324C7.11428 1.03324 7.87306 1.18123 8.54036 1.47721C9.20766 1.77319 9.74312 2.17411 10.1467 2.67996C10.5503 3.18582 10.8544 3.74549 11.0589 4.35897C11.2634 4.97246 11.3656 5.61823 11.3656 6.2963C11.3656 8.62108 9.72966 11.6616 6.45774 15.4179ZM6.21557 3.11586C5.88193 3.11586 5.55635 3.16967 5.23884 3.2773C4.92134 3.38493 4.63612 3.53292 4.38319 3.72127C4.13026 3.90962 3.90693 4.13295 3.7132 4.39126C3.51947 4.64957 3.37148 4.93479 3.26923 5.24691C3.16698 5.55904 3.11586 5.88192 3.11586 6.21558C3.11586 7.07661 3.41991 7.80848 4.02802 8.41121C4.63612 9.01393 5.368 9.31529 6.22365 9.31529C7.0793 9.31529 7.80848 9.01393 8.41121 8.41121C9.01393 7.80848 9.31529 7.07661 9.31529 6.21558C9.31529 5.79582 9.23457 5.3949 9.07312 5.01282C8.91168 4.63074 8.69104 4.30247 8.41121 4.02802C8.13137 3.75356 7.80041 3.53292 7.41833 3.3661C7.03625 3.19927 6.63533 3.11586 6.21557 3.11586ZM6.21557 8.28205C5.64514 8.28205 5.15543 8.07756 4.74644 7.66857C4.33745 7.25958 4.13295 6.76986 4.13295 6.19943C4.13295 5.629 4.33476 5.14198 4.73837 4.73837C5.14198 4.33476 5.629 4.13295 6.19943 4.13295C6.76986 4.13295 7.25689 4.33476 7.66049 4.73837C8.0641 5.14198 8.26591 5.629 8.26591 6.19943C8.26591 6.90978 7.98069 7.47483 7.41026 7.89459C7.05508 8.1529 6.65685 8.28205 6.21557 8.28205Z" fill="white"/>
</svg>
